# xmcd
#
# Track frame offsets: 
#        182
#        18320
#        36320
#        52557
#
# Disc length: 956 seconds
#
# Revision: 4
# Processed by: cddbd v1.5.2PL0 Copyright (c) Steve Scherf et al.
# Submitted via: ExactAudioCopyFreeDBPlugin 1.0
#
DISCID=2303ba04
DTITLE=Vicky Leandros - Weil mein Herz Dich nie mehr vergisst
DYEAR=1998
DGENRE=Schlager
TTITLE0=Weil_mein_Herz_Dich_nie_mehr_vergisst
TTITLE1=So_stark_hab_ich_noch_nie_Gefuehlt
TTITLE2=Wieviele_Naechte_werde_ich_noch_weinen
TTITLE3=Ich_brauch_Deine_Liebe
EXTD=
EXTT0=
EXTT1=
EXTT2=
EXTT3=
PLAYORDER=
